<?xml version="1.0" standalone="no"?>
<!DOCTYPE svg PUBLIC "-//W3C//DTD SVG 20010904//EN"
 "http://www.w3.org/TR/2001/REC-SVG-20010904/DTD/svg10.dtd">
<svg version="1.0" xmlns="http://www.w3.org/2000/svg"
 width="1024.000000pt" height="765.000000pt" viewBox="0 0 1024.000000 765.000000"
 preserveAspectRatio="xMidYMid meet">

<g transform="translate(0.000000,765.000000) scale(0.100000,-0.100000)"
fill="#000000" stroke="none">
<path d="M0 3825 l0 -3825 5120 0 5120 0 0 3825 0 3825 -5120 0 -5120 0 0
-3825z m9725 0 l0 -3440 -4605 0 -4605 0 -3 3430 c-1 1887 0 3436 3 3443 3 10
930 12 4607 10 l4603 -3 0 -3440z"/>
<path d="M4595 6680 c-22 -4 -72 -23 -111 -43 -169 -86 -301 -203 -356 -315
-31 -62 -33 -74 -33 -167 0 -92 2 -104 30 -155 68 -125 194 -215 555 -395 226
-113 307 -163 370 -228 53 -56 69 -88 70 -140 1 -114 -91 -210 -472 -496 -54
-41 -98 -76 -98 -78 0 -8 64 33 283 180 283 190 346 261 355 394 3 50 0 71
-21 115 -52 112 -148 192 -436 361 -306 181 -392 245 -441 331 -48 83 -39 147
32 238 34 43 138 115 223 153 101 46 119 55 140 73 105 88 49 193 -90 172z"/>
<path d="M6651 4439 c-132 -26 -263 -91 -343 -171 -70 -70 -98 -122 -98 -183
0 -111 122 -127 198 -27 88 115 177 177 293 202 84 19 193 9 259 -21 144 -68
210 -207 197 -412 -12 -181 -82 -351 -226 -545 -71 -96 -295 -324 -439 -446
-51 -43 -90 -81 -88 -84 6 -5 219 158 346 264 351 293 530 597 530 900 0 114
-13 180 -52 262 -92 196 -339 308 -577 261z"/>
<path d="M4380 4224 c-436 -33 -799 -108 -1052 -219 -205 -90 -286 -206 -229
-330 22 -50 69 -91 138 -121 149 -66 533 -158 848 -203 639 -92 1355 -90 1735
3 291 72 411 236 172 236 -74 0 -129 -8 -297 -45 -396 -87 -1099 -99 -1665
-29 -294 36 -627 106 -740 155 -66 28 -94 60 -86 95 21 82 243 193 550 274
684 181 1537 168 2137 -31 161 -53 159 -53 114 -28 -157 87 -561 187 -900 224
-135 15 -611 27 -725 19z"/>
<path d="M6150 3900 c14 -11 29 -20 34 -20 5 0 -3 9 -17 20 -14 11 -29 20 -34
20 -4 0 3 -9 17 -20z"/>
<path d="M3090 3417 c-78 -40 -87 -156 -27 -377 109 -409 255 -707 461 -943
221 -252 531 -426 897 -506 151 -32 626 -86 609 -68 -3 3 -70 15 -150 27 -720
108 -1122 350 -1393 840 -109 197 -224 583 -252 850 -7 68 -32 137 -56 157
-29 24 -65 32 -89 20z"/>
<path d="M3148 2362 c-64 -50 -132 -141 -159 -210 -15 -39 -24 -87 -27 -152
-4 -84 -1 -105 23 -175 54 -161 197 -329 389 -456 122 -81 363 -198 511 -248
494 -166 1128 -202 1670 -95 128 25 346 81 447 115 284 95 640 272 765 383 84
74 126 169 91 204 -18 18 -92 14 -150 -9 -29 -11 -91 -46 -138 -78 -437 -296
-987 -487 -1527 -532 -205 -17 -603 -7 -777 20 -422 66 -795 218 -1037 424
-82 70 -150 158 -198 257 -35 73 -36 78 -36 190 0 112 1 117 37 190 26 52 57
95 104 143 38 37 66 67 64 67 -3 0 -26 -17 -52 -38z"/>
</g>
</svg>
